HIERARCHY
ROOT Hips
{
	OFFSET 0.00000 0.00000 0.00000
	CHANNELS 6 Xposition Yposition Zposition Zrotation Yrotation Xrotation 
	JOINT LHipJoint
	{
		OFFSET 0 0 0
		CHANNELS 3 Zrotation Yrotation Xrotation
		JOINT LeftHip
		{
			OFFSET 1.57358 -1.76629 0.73362
			CHANNELS 3 Zrotation Yrotation Xrotation
			JOINT LeftKnee
			{
				OFFSET 2.40600 -6.61045 0.00000
				CHANNELS 3 Zrotation Yrotation Xrotation
				JOINT LeftAnkle
				{
					OFFSET 2.66168 -7.31291 0.00000
					CHANNELS 3 Zrotation Yrotation Xrotation
					JOINT LeftToe
					{
						OFFSET 0.20870 -0.57341 2.12506
						CHANNELS 3 Zrotation Yrotation Xrotation
						End Site
						{
							OFFSET 0.00000 -0.00000 1.10557
						}
					}
				}
			}
		}
	}
	JOINT RHipJoint
	{
		OFFSET 0 0 0
		CHANNELS 3 Zrotation Yrotation Xrotation
		JOINT RightHip
		{
			OFFSET -1.49299 -1.76629 0.73362
			CHANNELS 3 Zrotation Yrotation Xrotation
			JOINT RightKnee
			{
				OFFSET -2.43663 -6.69460 0.00000
				CHANNELS 3 Zrotation Yrotation Xrotation
				JOINT RightAnkle
				{
					OFFSET -2.62959 -7.22474 0.00000
					CHANNELS 3 Zrotation Yrotation Xrotation
					JOINT RightToe
					{
						OFFSET -0.25784 -0.70841 2.21862
						CHANNELS 3 Zrotation Yrotation Xrotation
						End Site
						{
							OFFSET -0.00000 -0.00000 1.16452
						}
					}
				}
			}
		}
	}
	JOINT lowerback
	{
		OFFSET 0 0 0
		CHANNELS 3 Zrotation Yrotation Xrotation
		JOINT Chest
		{
			OFFSET -0.00034 2.12399 -0.25450
			CHANNELS 3 Zrotation Yrotation Xrotation
			JOINT Chest2
			{
				OFFSET 0.05594 2.14379 -0.03318
				CHANNELS 3 Zrotation Yrotation Xrotation
				JOINT lowerneck
				{
					OFFSET 0 0 0
					CHANNELS 3 Zrotation Yrotation Xrotation
					JOINT Neck
					{
						OFFSET -0.09835 1.62725 0.24211
						CHANNELS 3 Zrotation Yrotation Xrotation
						JOINT Head
						{
							OFFSET 0.10849 1.66041 -0.22648
							CHANNELS 3 Zrotation Yrotation Xrotation
							End Site
							{
								OFFSET 0.04385 1.68267 -0.10541
							}
						}
					}
				}
				JOINT LeftCollar
				{
					OFFSET 0 0 0
					CHANNELS 3 Zrotation Yrotation Xrotation
					JOINT LeftShoulder
					{
						OFFSET 3.29108 0.79398 -0.68179
CHANNELS 3 Zrotation Xrotation Yrotation
						JOINT LeftElbow
						{
OFFSET 0 -5.153100 -0.000000
CHANNELS 3 Zrotation Xrotation Yrotation
							JOINT LeftWrist
							{
OFFSET 0 -3.751380 -0.000000
CHANNELS 3 Zrotation Xrotation Yrotation
								JOINT lhand
								{
									OFFSET 0 0 0
CHANNELS 3 Zrotation Xrotation Yrotation
									JOINT LFingers
									{
OFFSET 0 -0.529170 0.000000
CHANNELS 3 Zrotation Xrotation Yrotation
										End Site
										{
OFFSET 0 -0.426630 0.000000
										}
									}
								}
								JOINT LThumb
								{
OFFSET 0 0.000000 0.000000
CHANNELS 3 Zrotation Xrotation Yrotation
									End Site
									{
OFFSET 0 -0.433150 0.433150
									}
								}
							}
						}
					}
				}
				JOINT RightCollar
				{
					OFFSET 0 0 0
					CHANNELS 3 Zrotation Yrotation Xrotation
					JOINT RightShoulder
					{
						OFFSET -3.07414 1.06285 -0.44338
CHANNELS 3 Zrotation Xrotation Yrotation
						JOINT RightElbow
						{
OFFSET 0 -5.296130 0.000000
CHANNELS 3 Zrotation Xrotation Yrotation
							JOINT RightWrist
							{
OFFSET 0 -3.761440 -0.000000
CHANNELS 3 Zrotation Xrotation Yrotation
								JOINT rhand
								{
									OFFSET 0 0 0
CHANNELS 3 Zrotation Xrotation Yrotation
									JOINT RFingers
									{
OFFSET 0 -0.747320 0.000000
CHANNELS 3 Zrotation Xrotation Yrotation
										End Site
										{
OFFSET 0 -0.602510 0.000000
										}
									}
								}
								JOINT RThumb
								{
OFFSET 0 0.000000 0.000000
CHANNELS 3 Zrotation Xrotation Yrotation
									End Site
									{
OFFSET 0 -0.611710 0.611710
									}
								}
							}
						}
					}
				}
			}
		}
	}
}
MOTION
Frames: 10
Frame Time: 0.008333333333333333
-12.731000 16.731800 -30.004500 -3.595500 -6.714600 5.610300 0.000000 0.000000 0.000000 -19.248900 -6.410200 -11.465300 17.070600 19.793000 81.406600 0.325300 0.207000 10.702800 0.320200 -3.637100 -10.057900 0.000000 0.000000 0.000000 24.470300 6.148700 -25.366900 -6.355000 -14.763700 46.390300 -0.977000 -5.684500 -21.555800 -0.252600 3.234000 -8.930800 -2.044600 -0.562200 12.590100 5.214700 -0.687400 0.229700 6.868300 -0.182500 -6.753100 -11.786000 -0.207400 -16.033500 5.458800 1.592700 7.882000 3.750500 0.789500 4.828200 -0.000000 0.000000 0.000000 -3.515500 15.571900 -28.552900 107.469800 -58.814800 75.069100 18.662300 -19.169900 -10.366700 0.000000 0.000000 0.000000 -7.125000 0.000000 0.000000 -7.409400 40.797400 -0.772700 -0.000000 0.000000 0.000000 -16.151400 4.077900 51.465700 -125.059700 -54.803600 -89.832800 -14.945600 -8.894100 -24.278900 0.000000 0.000000 0.000000 7.125000 0.000000 -0.000000 8.852700 5.205500 8.112500
-12.732039 16.732442 -29.905057 -3.800619 -7.027228 5.846520 0.000000 0.000000 0.000000 -18.886811 -6.240887 -12.487748 17.225402 19.813072 81.863000 0.294963 0.182437 10.162813 0.334162 -3.713050 -10.270962 0.000000 0.000000 0.000000 24.681071 6.319571 -25.075933 -6.311465 -14.723189 46.218695 -0.949504 -5.947452 -21.485594 -0.343183 3.696296 -10.231719 -2.047899 -0.353048 12.392252 5.282187 -0.402849 0.155522 6.889899 -0.039461 -6.759516 -11.775735 -0.268991 -15.807698 5.413249 1.486169 7.785734 3.722088 0.734600 4.771772 0.000000 0.000000 0.000000 -3.661075 15.860576 -28.590142 107.639358 -58.790756 75.214095 18.600770 -19.216979 -10.381426 0.000000 0.000000 0.000000 -7.125000 0.000000 0.000000 -7.465705 40.807268 -0.776794 0.000000 0.000000 0.000000 -16.219254 3.841436 51.565479 -125.229960 -54.746653 -89.971776 -15.340471 -9.397976 -25.297407 0.000000 0.000000 0.000000 7.125000 0.000000 0.000000 8.688244 4.122287 8.126156
-12.733077 16.733083 -29.805614 -4.005738 -7.339855 6.082739 0.000000 0.000000 0.000000 -18.524721 -6.071574 -13.510195 17.380203 19.833144 82.319400 0.264626 0.157874 9.622825 0.348124 -3.788999 -10.484024 0.000000 0.000000 0.000000 24.891842 6.490443 -24.784966 -6.267930 -14.682679 46.047091 -0.922008 -6.210404 -21.415388 -0.433767 4.158593 -11.532638 -2.051199 -0.143897 12.194405 5.349674 -0.118297 0.081345 6.911499 0.103579 -6.765931 -11.765470 -0.330581 -15.581896 5.367697 1.379638 7.689468 3.693675 0.679700 4.715345 0.000000 0.000000 0.000000 -3.806650 16.149251 -28.627383 107.808915 -58.766713 75.359089 18.539241 -19.264058 -10.396151 0.000000 0.000000 0.000000 -7.125000 0.000000 0.000000 -7.522011 40.817136 -0.780888 0.000000 0.000000 0.000000 -16.287107 3.604972 51.665259 -125.400221 -54.689706 -90.110752 -15.735341 -9.901853 -26.315913 0.000000 0.000000 0.000000 7.125000 0.000000 0.000000 8.523789 3.039073 8.139813
-12.734116 16.733725 -29.706170 -4.210857 -7.652483 6.318959 0.000000 0.000000 0.000000 -18.162632 -5.902260 -14.532643 17.535005 19.853216 82.775801 0.234289 0.133311 9.082838 0.362085 -3.864949 -10.697086 0.000000 0.000000 0.000000 25.102612 6.661314 -24.493999 -6.224395 -14.642168 45.875486 -0.894513 -6.473355 -21.345182 -0.524350 4.620889 -12.833558 -2.054498 0.065255 11.996557 5.417161 0.166254 0.007167 6.933098 0.246618 -6.772347 -11.755205 -0.392172 -15.356094 5.322146 1.273107 7.593202 3.665263 0.624800 4.658917 0.000000 0.000000 0.000000 -3.952225 16.437927 -28.664625 107.978473 -58.742669 75.504084 18.477711 -19.311137 -10.410877 0.000000 0.000000 0.000000 -7.125000 0.000000 0.000000 -7.578316 40.827004 -0.784981 0.000000 0.000000 0.000000 -16.354961 3.368508 51.765038 -125.570481 -54.632759 -90.249728 -16.130212 -10.405729 -27.334420 0.000000 0.000000 0.000000 7.125000 0.000000 0.000000 8.359333 1.955860 8.153469
-12.730847 16.740916 -29.603663 -4.350874 -7.325977 6.307119 0.000000 0.000000 0.000000 -17.871505 -6.285197 -15.163462 17.637183 19.865317 83.076620 0.213055 0.122026 8.660441 0.354154 -3.821554 -10.575406 0.000000 0.000000 0.000000 25.307055 6.216788 -24.031553 -6.158412 -14.579365 45.612825 -0.881271 -6.711350 -21.395631 -0.577165 4.860017 -13.510753 -1.851504 0.083721 12.041440 5.425697 0.221663 -0.000777 6.815659 0.268226 -6.812868 -11.717407 -0.513268 -15.342116 5.322645 1.101297 7.612795 3.645643 0.541080 4.678005 0.000000 0.000000 0.000000 -3.945905 16.573308 -28.857070 108.062036 -58.730682 75.575518 18.411275 -19.447919 -10.382905 0.000000 0.000000 0.000000 -7.125000 0.000000 0.000000 -7.631468 40.792065 -0.797291 0.000000 0.000000 0.000000 -16.343991 3.098050 51.740521 -125.763544 -54.566975 -90.407000 -15.088527 -9.789474 -26.168107 0.000000 0.000000 0.000000 7.125000 0.000000 0.000000 8.945051 3.252769 8.454463
-12.725959 16.750570 -29.500004 -4.466418 -6.759197 6.202024 0.000000 0.000000 0.000000 -17.607056 -6.875746 -15.647052 17.719579 19.874421 83.318949 0.195244 0.115733 8.282251 0.337993 -3.733292 -10.327882 0.000000 0.000000 0.000000 25.509119 5.540910 -23.504642 -6.083990 -14.508182 45.315931 -0.873389 -6.939963 -21.491438 -0.615782 5.015246 -13.953467 -1.570955 0.030502 12.177574 5.412071 0.190929 0.016179 6.645948 0.244182 -6.866210 -11.669259 -0.656736 -15.407770 5.340456 0.904946 7.675944 3.629329 0.446525 4.725481 0.000000 0.000000 0.000000 -3.882481 16.651060 -29.107862 108.113269 -58.723228 75.619297 18.342993 -19.618423 -10.338881 0.000000 0.000000 0.000000 -7.125000 0.000000 0.000000 -7.683436 40.740281 -0.812688 0.000000 0.000000 0.000000 -16.303389 2.814812 51.669276 -125.965180 -54.497869 -90.571150 -13.506784 -8.752118 -24.180434 0.000000 0.000000 0.000000 7.125000 0.000000 0.000000 9.812789 5.444462 8.863478
-12.721071 16.760225 -29.396344 -4.581961 -6.192416 6.096929 0.000000 0.000000 0.000000 -17.342608 -7.466295 -16.130643 17.801975 19.883525 83.561279 0.177433 0.109439 7.904061 0.321831 -3.645030 -10.080359 0.000000 0.000000 0.000000 25.711183 4.865032 -22.977730 -6.009568 -14.436998 45.019037 -0.865507 -7.168575 -21.587246 -0.654398 5.170475 -14.396180 -1.290406 -0.022718 12.313709 5.398446 0.160195 0.033135 6.476238 0.220139 -6.919551 -11.621111 -0.800203 -15.473424 5.358267 0.708595 7.739092 3.613015 0.351969 4.772957 0.000000 0.000000 0.000000 -3.819058 16.728813 -29.358655 108.164503 -58.715773 75.663077 18.274712 -19.788928 -10.294857 0.000000 0.000000 0.000000 -7.125000 0.000000 0.000000 -7.735403 40.688497 -0.828086 0.000000 0.000000 0.000000 -16.262787 2.531575 51.598032 -126.166816 -54.428763 -90.735301 -11.925041 -7.714761 -22.192760 0.000000 0.000000 0.000000 7.125000 0.000000 0.000000 10.680526 7.636154 9.272494
-12.715587 16.771874 -29.291521 -4.723971 -5.761401 6.039334 0.000000 0.000000 0.000000 -17.071425 -7.929989 -16.662468 17.867023 19.890509 83.752562 0.158333 0.099363 7.455896 0.317171 -3.619982 -10.010073 0.000000 0.000000 0.000000 25.914729 4.333524 -22.445054 -5.935991 -14.365510 44.723418 -0.867380 -7.284909 -21.689178 -0.661477 5.199542 -14.478959 -1.060100 -0.075328 12.380091 5.427179 0.126176 0.027795 6.381837 0.197010 -6.957901 -11.611954 -0.874027 -15.431261 5.355543 0.602977 7.748700 3.602132 0.299538 4.778462 0.000000 0.000000 0.000000 -3.871321 16.866369 -29.456403 108.249561 -58.703275 75.735747 18.159956 -19.956952 -10.217383 0.000000 0.000000 0.000000 -7.125000 0.000000 0.000000 -7.821831 40.598220 -0.855442 0.000000 0.000000 0.000000 -16.313028 2.179290 51.678002 -126.281295 -54.389504 -90.828492 -11.316822 -7.366527 -21.326834 0.000000 0.000000 0.000000 7.125000 0.000000 0.000000 10.999841 8.586615 9.409259
-12.709385 16.785927 -29.185296 -4.897867 -5.493958 6.038967 0.000000 0.000000 0.000000 -16.792128 -8.240845 -17.252406 17.911169 19.894939 83.882342 0.137681 0.084729 6.923424 0.326367 -3.671093 -10.153326 0.000000 0.000000 0.000000 26.120062 3.975956 -21.905433 -5.863433 -14.293654 44.429335 -0.881006 -7.265967 -21.798489 -0.630560 5.076605 -14.128082 -0.890328 -0.127204 12.362433 5.506948 0.088202 -0.004405 6.378171 0.174982 -6.978186 -11.649776 -0.863946 -15.259198 5.328078 0.606673 7.693800 3.597794 0.297858 4.733399 0.000000 0.000000 0.000000 -4.062967 17.075979 -29.369761 108.375369 -58.684700 75.843225 17.989207 -20.121988 -10.099610 0.000000 0.000000 0.000000 -7.125000 0.000000 0.000000 -7.949778 40.461566 -0.897205 0.000000 0.000000 0.000000 -16.472717 1.743818 51.940159 -126.290766 -54.386204 -90.836191 -11.881525 -7.848559 -21.812410 0.000000 0.000000 0.000000 7.125000 0.000000 0.000000 10.658404 8.041617 9.218010
-12.703183 16.799981 -29.079070 -5.071762 -5.226515 6.038601 0.000000 0.000000 0.000000 -16.512832 -8.551700 -17.842344 17.955315 19.899369 84.012123 0.117028 0.070095 6.390952 0.335562 -3.722205 -10.296579 0.000000 0.000000 0.000000 26.325394 3.618388 -21.365812 -5.790874 -14.221798 44.135252 -0.894631 -7.247026 -21.907801 -0.599642 4.953668 -13.777204 -0.720557 -0.179079 12.344774 5.586716 0.050227 -0.036606 6.374505 0.152955 -6.998472 -11.687598 -0.853864 -15.087135 5.300613 0.610370 7.638900 3.593456 0.296177 4.688337 0.000000 0.000000 0.000000 -4.254613 17.285589 -29.283118 108.501178 -58.666125 75.950703 17.818458 -20.287025 -9.981836 0.000000 0.000000 0.000000 -7.125000 0.000000 0.000000 -8.077725 40.324912 -0.938968 0.000000 0.000000 0.000000 -16.632407 1.308345 52.202317 -126.300237 -54.382905 -90.843889 -12.446229 -8.330591 -22.297987 0.000000 0.000000 0.000000 7.125000 0.000000 0.000000 10.316966 7.496620 9.026761
